<svg xmlns="http://www.w3.org/2000/svg" version="1.1" xmlns:xlink="http://www.w3.org/1999/xlink" xmlns:svgjs="http://svgjs.dev/svgjs" width="1000" height="1125" viewBox="0 0 1000 1125"><g transform="matrix(1,0,0,1,0,0)"><svg viewBox="0 0 320 360" data-background-color="#001f3f" preserveAspectRatio="xMidYMid meet" height="1125" width="1000" xmlns="http://www.w3.org/2000/svg" xmlns:xlink="http://www.w3.org/1999/xlink"><g id="tight-bounds" transform="matrix(1,0,0,1,0,0)"><svg viewBox="0 0 320 360" height="360" width="320"><g><svg></svg></g><g><svg viewBox="0 0 320 360" height="360" width="320"><g><path d="M160 340c88.258 0 160-71.742 160-160 0-88.258-71.742-160-160-160-88.258 0-160 71.742-160 160 0 88.258 71.742 160 160 160zM165.161 329.368v-10.323c72.671-2.684 131.2-61.213 133.884-133.884h10.323c-2.684 78.452-65.755 141.523-144.207 144.207zM165.161 30.632c78.452 2.684 141.523 65.755 144.207 144.207h-10.323c-2.684-72.671-61.213-131.2-133.884-133.884zM289.032 180c0 71.123-57.91 129.032-129.032 129.032-71.123 0-129.032-57.91-129.032-129.032 0-71.123 57.91-129.032 129.032-129.032 71.123 0 129.032 57.91 129.032 129.032zM154.839 30.632v10.323c-72.671 2.684-131.2 61.213-133.884 133.884h-10.323c2.684-78.452 65.755-141.523 144.207-144.207zM20.955 185.161c2.684 72.671 61.213 131.2 133.884 133.884v10.323c-78.452-2.684-141.523-65.755-144.207-144.207z" fill="#ffdc00" fill-rule="nonzero" stroke="none" stroke-width="1" stroke-linecap="butt" stroke-linejoin="miter" stroke-miterlimit="10" stroke-dasharray="" stroke-dashoffset="0" font-family="none" font-weight="none" font-size="none" text-anchor="none" style="mix-blend-mode: normal" data-fill-palette-color="tertiary"></path></g><g transform="matrix(1,0,0,1,91.0843373493976,90)"><svg viewBox="0 0 137.8313253012048 180" height="180" width="137.8313253012048"><g><svg viewBox="0 0 137.8313253012048 180" height="180" width="137.8313253012048"><g><svg viewBox="0 0 137.8313253012048 180" height="180" width="137.8313253012048"><g id="textblocktransform"><svg viewBox="0 0 137.8313253012048 180" height="180" width="137.8313253012048" id="textblock"><g><svg viewBox="0 0 137.8313253012048 180" height="180" width="137.8313253012048"><g transform="matrix(1,0,0,1,0,0)"><svg width="137.8313253012048" viewBox="4.2 -36.8 28.599999999999998 37.349999999999994" height="180" data-palette-color="#ffdc00"><g class="wordmark-text-0" data-fill-palette-color="primary" id="text-0"><path d="M8.75-36.8L8.75-36.8 26.05-36.8Q29.85-36.8 31.33-35.9 32.8-35 32.8-33.18 32.8-31.35 31.2-30L31.2-30Q28.8-30.95 24.9-30.95L24.9-30.95 13.75-30.95 13.75-22.1 20.65-22.1Q24.65-22.1 26.33-21.38 28-20.65 28-18.98 28-17.3 26.4-16.2L26.4-16.2Q24.6-16.7 20.1-16.7L20.1-16.7 13.75-16.7 13.75-5.15Q13.75-2.45 15.35-1.6L15.35-1.6Q13.55 0.55 10.8 0.55L10.8 0.55Q5.9 0.55 5.9-5.4L5.9-5.4 5.9-31.15Q5.9-33.7 4.2-34.6L4.2-34.6Q6.05-36.8 8.75-36.8Z" fill="#ffdc00" data-fill-palette-color="primary"></path></g></svg></g></svg></g></svg></g></svg></g></svg></g></svg></g></svg></g><defs></defs></svg><rect width="320" height="360" fill="none" stroke="none" visibility="hidden"></rect></g></svg></g></svg>